<mxfile host="app.diagrams.net" agent="Mozilla/5.0 (Windows NT 10.0; Win64; x64) AppleWebKit/537.36 (KHTML, like Gecko) Chrome/134.0.0.0 Safari/537.36 Edg/134.0.0.0" version="26.1.3">
  <diagram name="Page-1" id="tXKbfCig2ZSVJ9kSSH7E">
    <mxGraphModel dx="983" dy="515" grid="1" gridSize="10" guides="1" tooltips="1" connect="1" arrows="1" fold="1" page="1" pageScale="1" pageWidth="850" pageHeight="1100" math="0" shadow="0">
      <root>
        <mxCell id="0" />
        <mxCell id="1" parent="0" />
        <mxCell id="c3m6MNQR3B4Yug3Fj_e4-16" style="edgeStyle=orthogonalEdgeStyle;rounded=0;orthogonalLoop=1;jettySize=auto;html=1;entryX=0.5;entryY=0;entryDx=0;entryDy=0;" edge="1" parent="1" source="c3m6MNQR3B4Yug3Fj_e4-1" target="c3m6MNQR3B4Yug3Fj_e4-4">
          <mxGeometry relative="1" as="geometry" />
        </mxCell>
        <mxCell id="c3m6MNQR3B4Yug3Fj_e4-1" value="VisionEntry" style="rounded=1;whiteSpace=wrap;html=1;" vertex="1" parent="1">
          <mxGeometry x="360" y="360" width="120" height="60" as="geometry" />
        </mxCell>
        <mxCell id="c3m6MNQR3B4Yug3Fj_e4-8" style="edgeStyle=orthogonalEdgeStyle;rounded=0;orthogonalLoop=1;jettySize=auto;html=1;entryX=0.5;entryY=0;entryDx=0;entryDy=0;" edge="1" parent="1" source="c3m6MNQR3B4Yug3Fj_e4-2" target="c3m6MNQR3B4Yug3Fj_e4-1">
          <mxGeometry relative="1" as="geometry" />
        </mxCell>
        <mxCell id="c3m6MNQR3B4Yug3Fj_e4-2" value="Hardware" style="rounded=1;whiteSpace=wrap;html=1;" vertex="1" parent="1">
          <mxGeometry x="90" y="300" width="120" height="60" as="geometry" />
        </mxCell>
        <mxCell id="c3m6MNQR3B4Yug3Fj_e4-3" value="Display" style="rounded=1;whiteSpace=wrap;html=1;" vertex="1" parent="1">
          <mxGeometry x="90" y="580" width="120" height="60" as="geometry" />
        </mxCell>
        <mxCell id="c3m6MNQR3B4Yug3Fj_e4-6" style="edgeStyle=orthogonalEdgeStyle;rounded=0;orthogonalLoop=1;jettySize=auto;html=1;" edge="1" parent="1" source="c3m6MNQR3B4Yug3Fj_e4-4" target="c3m6MNQR3B4Yug3Fj_e4-3">
          <mxGeometry relative="1" as="geometry" />
        </mxCell>
        <mxCell id="c3m6MNQR3B4Yug3Fj_e4-7" style="edgeStyle=orthogonalEdgeStyle;rounded=0;orthogonalLoop=1;jettySize=auto;html=1;exitX=0;exitY=0.25;exitDx=0;exitDy=0;entryX=0.5;entryY=1;entryDx=0;entryDy=0;" edge="1" parent="1" source="c3m6MNQR3B4Yug3Fj_e4-4" target="c3m6MNQR3B4Yug3Fj_e4-2">
          <mxGeometry relative="1" as="geometry" />
        </mxCell>
        <mxCell id="c3m6MNQR3B4Yug3Fj_e4-12" style="edgeStyle=orthogonalEdgeStyle;rounded=0;orthogonalLoop=1;jettySize=auto;html=1;entryX=0;entryY=0.5;entryDx=0;entryDy=0;" edge="1" parent="1" source="c3m6MNQR3B4Yug3Fj_e4-4" target="c3m6MNQR3B4Yug3Fj_e4-9">
          <mxGeometry relative="1" as="geometry" />
        </mxCell>
        <mxCell id="c3m6MNQR3B4Yug3Fj_e4-4" value="ImageProcessor" style="rounded=1;whiteSpace=wrap;html=1;" vertex="1" parent="1">
          <mxGeometry x="365" y="480" width="120" height="60" as="geometry" />
        </mxCell>
        <mxCell id="c3m6MNQR3B4Yug3Fj_e4-13" style="edgeStyle=orthogonalEdgeStyle;rounded=0;orthogonalLoop=1;jettySize=auto;html=1;entryX=0.5;entryY=1;entryDx=0;entryDy=0;" edge="1" parent="1" source="c3m6MNQR3B4Yug3Fj_e4-9" target="c3m6MNQR3B4Yug3Fj_e4-10">
          <mxGeometry relative="1" as="geometry" />
        </mxCell>
        <mxCell id="c3m6MNQR3B4Yug3Fj_e4-18" style="edgeStyle=orthogonalEdgeStyle;rounded=0;orthogonalLoop=1;jettySize=auto;html=1;exitX=0;exitY=0.25;exitDx=0;exitDy=0;entryX=1;entryY=0.25;entryDx=0;entryDy=0;" edge="1" parent="1" source="c3m6MNQR3B4Yug3Fj_e4-9" target="c3m6MNQR3B4Yug3Fj_e4-4">
          <mxGeometry relative="1" as="geometry" />
        </mxCell>
        <mxCell id="c3m6MNQR3B4Yug3Fj_e4-9" value="ModelHandler" style="rounded=1;whiteSpace=wrap;html=1;" vertex="1" parent="1">
          <mxGeometry x="560" y="480" width="120" height="60" as="geometry" />
        </mxCell>
        <mxCell id="c3m6MNQR3B4Yug3Fj_e4-14" style="edgeStyle=orthogonalEdgeStyle;rounded=0;orthogonalLoop=1;jettySize=auto;html=1;entryX=0.5;entryY=1;entryDx=0;entryDy=0;" edge="1" parent="1" source="c3m6MNQR3B4Yug3Fj_e4-10" target="c3m6MNQR3B4Yug3Fj_e4-11">
          <mxGeometry relative="1" as="geometry" />
        </mxCell>
        <mxCell id="c3m6MNQR3B4Yug3Fj_e4-17" style="edgeStyle=orthogonalEdgeStyle;rounded=0;orthogonalLoop=1;jettySize=auto;html=1;exitX=0.25;exitY=1;exitDx=0;exitDy=0;entryX=0.25;entryY=0;entryDx=0;entryDy=0;" edge="1" parent="1" source="c3m6MNQR3B4Yug3Fj_e4-10" target="c3m6MNQR3B4Yug3Fj_e4-9">
          <mxGeometry relative="1" as="geometry" />
        </mxCell>
        <mxCell id="c3m6MNQR3B4Yug3Fj_e4-10" value="TextClassifier" style="rounded=1;whiteSpace=wrap;html=1;" vertex="1" parent="1">
          <mxGeometry x="560" y="360" width="120" height="60" as="geometry" />
        </mxCell>
        <mxCell id="c3m6MNQR3B4Yug3Fj_e4-15" style="edgeStyle=orthogonalEdgeStyle;rounded=0;orthogonalLoop=1;jettySize=auto;html=1;entryX=0.5;entryY=0;entryDx=0;entryDy=0;" edge="1" parent="1" source="c3m6MNQR3B4Yug3Fj_e4-11" target="c3m6MNQR3B4Yug3Fj_e4-10">
          <mxGeometry relative="1" as="geometry">
            <Array as="points">
              <mxPoint x="840" y="340" />
              <mxPoint x="620" y="340" />
            </Array>
          </mxGeometry>
        </mxCell>
        <mxCell id="c3m6MNQR3B4Yug3Fj_e4-11" value="Python Server" style="rounded=1;whiteSpace=wrap;html=1;" vertex="1" parent="1">
          <mxGeometry x="780" y="390" width="120" height="60" as="geometry" />
        </mxCell>
      </root>
    </mxGraphModel>
  </diagram>
</mxfile>
